0
SECTION
2
HEADER
9
$INSUNITS
70
4
9
$ACADVER
1
AC1014
9
$HANDSEED
5
FFFF
0
ENDSEC
0
SECTION
2
TABLES
0
TABLE
2
VPORT
5
8
100
AcDbSymbolTable
0
ENDTAB
0
TABLE
2
LTYPE
5
5
100
AcDbSymbolTable
0
LTYPE
5
14
100
AcDbSymbolTableRecord
100
AcDbLinetypeTableRecord
2
BYBLOCK
70
0
0
LTYPE
5
15
100
AcDbSymbolTableRecord
100
AcDbLinetypeTableRecord
2
BYLAYER
70
0
0
ENDTAB
0
TABLE
2
LAYER
5
2
100
AcDbSymbolTable
70
2
0
LAYER
5
50
100
AcDbSymbolTableRecord
100
AcDbLayerTableRecord
2
0
70
0
6
CONTINUOUS
0
ENDTAB
0
TABLE
2
STYLE
5
3
100
AcDbSymbolTable
70
1
0
STYLE
5
11
100
AcDbSymbolTableRecord
100
AcDbTextStyleTableRecord
2
STANDARD
70
0
0
ENDTAB
0
TABLE
2
VIEW
5
6
100
AcDbSymbolTable
70
0
0
ENDTAB
0
TABLE
2
UCS
5
7
100
AcDbSymbolTable
70
0
0
ENDTAB
0
TABLE
2
APPID
5
9
100
AcDbSymbolTable
70
2
0
APPID
5
12
100
AcDbSymbolTableRecord
100
AcDbRegAppTableRecord
2
ACAD
70
0
0
ENDTAB
0
TABLE
2
DIMSTYLE
5
A
100
AcDbSymbolTable
70
1
0
ENDTAB
0
TABLE
2
BLOCK_RECORD
5
1
100
AcDbSymbolTable
70
1
0
BLOCK_RECORD
5
1F
100
AcDbSymbolTableRecord
100
AcDbBlockTableRecord
2
*MODEL_SPACE
0
BLOCK_RECORD
5
1B
100
AcDbSymbolTableRecord
100
AcDbBlockTableRecord
2
*PAPER_SPACE
0
ENDTAB
0
ENDSEC
0
SECTION
2
BLOCKS
0
BLOCK
5
20
100
AcDbEntity
100
AcDbBlockBegin
2
*MODEL_SPACE
0
ENDBLK
5
21
100
AcDbEntity
100
AcDbBlockEnd
0
BLOCK
5
1C
100
AcDbEntity
100
AcDbBlockBegin
2
*PAPER_SPACE
0
ENDBLK
5
1D
100
AcDbEntity
100
AcDbBlockEnd
0
ENDSEC
0
SECTION
2
ENTITIES
0
LWPOLYLINE
5
100
100
AcDbEntity
8
0
100
AcDbPolyline
90
4
70
1
43
0.0
10
-100
20
150
10
125
20
150
10
125
20
-150
10
-100
20
-150
0
CIRCLE
5
101
100
AcDbEntity
8
0
100
AcDbCircle
10
-44.706593814564144
20
80.689106043877459
30
0
40
50
210
0
220
0
230
1
0
CIRCLE
5
102
100
AcDbEntity
8
0
100
AcDbCircle
10
69.999999999999986
20
79.999999999999986
30
0
40
50
210
0
220
0
230
1
0
CIRCLE
5
103
100
AcDbEntity
8
0
100
AcDbCircle
10
70
20
-80
30
0
40
50
210
0
220
0
230
1
0
LINE
5
104
100
AcDbEntity
8
0
100
AcDbLine
10
-65
20
65
30
0
11
-30
21
65
31
0
0
LINE
5
105
100
AcDbEntity
8
0
100
AcDbLine
10
-35
20
100
30
0
11
-60
21
100
31
0
0
LINE
5
106
100
AcDbEntity
8
0
100
AcDbLine
10
-75
20
90
30
0
11
-75
21
103.64032263101166
31
0
0
LINE
5
107
100
AcDbEntity
8
0
100
AcDbLine
10
-73.710096789303506
20
104.57003226310115
30
0
11
-60
21
100
31
0
0
LINE
5
108
100
AcDbEntity
8
0
100
AcDbLine
10
-35
20
100
30
0
11
-21.289903210696504
21
104.57003226310115
31
0
0
LINE
5
109
100
AcDbEntity
8
0
100
AcDbLine
10
-20.000000000000004
20
103.64032263101166
30
0
11
-20
21
90
31
0
0
LWPOLYLINE
5
110
100
AcDbEntity
8
0
100
AcDbPolyline
90
4
70
1
43
0.0
10
-65.000000968575478
20
77.000001147389412
10
-65.000000968575478
20
79.000001177191734
10
-80.000001192092896
20
79.000001177191734
10
-80.000001192092896
20
77.000001147389412
0
LWPOLYLINE
5
111
100
AcDbEntity
8
0
100
AcDbPolyline
90
4
70
1
43
0.0
10
-65.000000968575478
20
74.000001102685928
10
-81.000001206994057
20
74.000001102685928
10
-81.000001206994057
20
72.000001072883606
10
-65.000000968575478
20
72.000001072883606
0
LWPOLYLINE
5
112
100
AcDbEntity
8
0
100
AcDbPolyline
90
4
70
1
43
0.0
10
-65.000000968575478
20
69.000001028180122
10
-81.000001206994057
20
69.000001028180122
10
-81.000001206994057
20
67.0000009983778
10
-65.000000968575478
20
67.0000009983778
0
LWPOLYLINE
5
113
100
AcDbEntity
8
0
100
AcDbPolyline
90
4
70
1
43
0.0
10
-30.000000447034836
20
79.000001177191734
10
-30.000000447034836
20
77.000001147389412
10
-15.000000223517418
20
77.000001147389412
10
-15.000000223517418
20
79.000001177191734
0
LWPOLYLINE
5
114
100
AcDbEntity
8
0
100
AcDbPolyline
90
4
70
1
43
0.0
10
-30.000000447034836
20
74.000001102685928
10
-30.000000447034836
20
72.000001072883606
10
-14.000000208616257
20
72.000001072883606
10
-14.000000208616257
20
74.000001102685928
0
LWPOLYLINE
5
115
100
AcDbEntity
8
0
100
AcDbPolyline
90
4
70
1
43
0.0
10
-30.000000447034836
20
69.000001028180122
10
-30.000000447034836
20
67.0000009983778
10
-14.000000208616257
20
67.0000009983778
10
-14.000000208616257
20
69.000001028180122
0
LINE
5
116
100
AcDbEntity
8
0
100
AcDbLine
10
-75
20
90
30
0
11
-75
21
79.000001177191734
31
0
0
LINE
5
117
100
AcDbEntity
8
0
100
AcDbLine
10
-75
20
77.000001147389412
30
0
11
-75
21
74.000001102685928
31
0
0
LINE
5
118
100
AcDbEntity
8
0
100
AcDbLine
10
-20
20
79.000001177191734
30
0
11
-20
21
90
31
0
0
LINE
5
119
100
AcDbEntity
8
0
100
AcDbLine
10
-20
20
75
30
0
11
-20
21
77.000001147389412
31
0
0
LWPOLYLINE
5
120
100
AcDbEntity
8
0
100
AcDbPolyline
90
9
70
1
43
0.0
10
-61.000000908970833
20
88.000001311302185
10
-61.000000908970826
20
89.020001341104503
42
-0.41421356237310036
10
-60.020000908970836
20
90.000001341104507
10
-56.980000834465024
20
90.000001341104507
42
-0.41421356237310036
10
-56.000000834465027
20
89.020001341104503
10
-56.000000834465034
20
84.980001251697544
42
-0.41421356237310036
10
-56.980000834465024
20
84.00000125169754
10
-59.900000908970831
20
84.00000125169754
42
-0.41421356237311163
10
-61.000000908970819
20
85.100001251697535
0
LWPOLYLINE
5
121
100
AcDbEntity
8
0
100
AcDbPolyline
90
8
70
1
43
0.0
10
-34.000000506639481
20
84.980001251697544
10
-34.000000506639481
20
89.020001341104503
42
0.41421356237310164
10
-34.980000506639477
20
90.000001341104507
10
-38.02000058114529
20
90.000001341104507
42
0.41421356237310164
10
-39.000000581145279
20
89.020001341104503
10
-39.000000581145287
20
84.980001251697544
42
0.41421356237310164
10
-38.02000058114529
20
84.00000125169754
10
-34.980000506639477
20
84.00000125169754
42
0.41421356237310164
0
CIRCLE
5
122
100
AcDbEntity
8
0
100
AcDbCircle
10
69.999999999999986
20
79.999999999999986
30
0
40
40
210
0
220
0
230
1
0
CIRCLE
5
123
100
AcDbEntity
8
0
100
AcDbCircle
10
69.999999999999986
20
79.999999999999986
30
0
40
30.000000000000004
210
0
220
0
230
1
0
CIRCLE
5
124
100
AcDbEntity
8
0
100
AcDbCircle
10
69.999999999999986
20
79.999999999999986
30
0
40
20
210
0
220
0
230
1
0
CIRCLE
5
125
100
AcDbEntity
8
0
100
AcDbCircle
10
69.999999999999986
20
79.999999999999986
30
0
40
10.000000000000004
210
0
220
0
230
1
0
LWPOLYLINE
5
126
100
AcDbEntity
8
0
100
AcDbPolyline
90
4
70
1
43
0.0
10
-90
20
-120
10
10
20
-120
10
10
20
-20
10
-90
20
-20
0
LWPOLYLINE
5
127
100
AcDbEntity
8
0
100
AcDbPolyline
90
4
70
1
43
0.0
10
-85
20
-25
10
-85.000000000000014
20
-64.834051674877287
10
-45.000000000000007
20
-64.834051674877287
10
-45
20
-25
0
LWPOLYLINE
5
128
100
AcDbEntity
8
0
100
AcDbPolyline
90
4
70
1
43
0.0
10
-35
20
-25
10
-35.000000000000007
20
-64.834051674877287
10
4.9999999999999956
20
-64.834051674877301
10
5
20
-25
0
LWPOLYLINE
5
129
100
AcDbEntity
8
0
100
AcDbPolyline
90
4
70
1
43
0.0
10
-85
20
-75
10
-85
20
-115
10
-45
20
-115
10
-45
20
-75
0
LWPOLYLINE
5
130
100
AcDbEntity
8
0
100
AcDbPolyline
90
4
70
1
43
0.0
10
-35
20
-75
10
-35
20
-115
10
5
20
-115
10
5
20
-75
0
LINE
5
131
100
AcDbEntity
8
0
100
AcDbLine
10
-85
20
-90
30
0
11
-70
21
-90
31
0
0
LINE
5
132
100
AcDbEntity
8
0
100
AcDbLine
10
-70
20
-90
30
0
11
-70
21
-75
31
0
0
LINE
5
133
100
AcDbEntity
8
0
100
AcDbLine
10
-60
20
-75
30
0
11
-60
21
-90
31
0
0
LINE
5
134
100
AcDbEntity
8
0
100
AcDbLine
10
-60
20
-90
30
0
11
-45
21
-90
31
0
0
LINE
5
135
100
AcDbEntity
8
0
100
AcDbLine
10
-60
20
-100
30
0
11
-60
21
-115
31
0
0
LINE
5
136
100
AcDbEntity
8
0
100
AcDbLine
10
-60
20
-100
30
0
11
-45
21
-100
31
0
0
LINE
5
137
100
AcDbEntity
8
0
100
AcDbLine
10
-85
20
-100
30
0
11
-70
21
-100
31
0
0
LINE
5
138
100
AcDbEntity
8
0
100
AcDbLine
10
-70
20
-100
30
0
11
-70
21
-115
31
0
0
LINE
5
139
100
AcDbEntity
8
0
100
AcDbLine
10
-20
20
-100
30
0
11
-35
21
-100
31
0
0
LINE
5
140
100
AcDbEntity
8
0
100
AcDbLine
10
-20
20
-100
30
0
11
-20
21
-115
31
0
0
LINE
5
141
100
AcDbEntity
8
0
100
AcDbLine
10
-10
20
-115
30
0
11
-10
21
-100
31
0
0
LINE
5
142
100
AcDbEntity
8
0
100
AcDbLine
10
-10
20
-100
30
0
11
5
21
-100
31
0
0
LINE
5
143
100
AcDbEntity
8
0
100
AcDbLine
10
-10
20
-75
30
0
11
-10
21
-90
31
0
0
LINE
5
144
100
AcDbEntity
8
0
100
AcDbLine
10
-10
20
-90
30
0
11
5
21
-90
31
0
0
LINE
5
145
100
AcDbEntity
8
0
100
AcDbLine
10
-20
20
-75
30
0
11
-20
21
-90
31
0
0
LINE
5
146
100
AcDbEntity
8
0
100
AcDbLine
10
-20
20
-90
30
0
11
-35
21
-90
31
0
0
LINE
5
147
100
AcDbEntity
8
0
100
AcDbLine
10
-20.000000000000004
20
-64.834051674877301
30
0
11
-19.999999999999993
21
-50.047932420866815
31
0
0
LINE
5
148
100
AcDbEntity
8
0
100
AcDbLine
10
-19.999999999999993
20
-50.047932420866815
30
0
11
-35.176859556397616
21
-50.047932420866829
31
0
0
LINE
5
149
100
AcDbEntity
8
0
100
AcDbLine
10
-9.9999999999999911
20
-50.047932420866829
30
0
11
-10.000000000000004
21
-64.834051674877301
31
0
0
LINE
5
150
100
AcDbEntity
8
0
100
AcDbLine
10
-9.9999999999999911
20
-50.047932420866829
30
0
11
5
21
-50.047932420866836
31
0
0
LINE
5
151
100
AcDbEntity
8
0
100
AcDbLine
10
-10
20
-25
30
0
11
-10
21
-40
31
0
0
LINE
5
152
100
AcDbEntity
8
0
100
AcDbLine
10
-10
20
-40
30
0
11
5
21
-40
31
0
0
LINE
5
153
100
AcDbEntity
8
0
100
AcDbLine
10
-20
20
-25
30
0
11
-20
21
-27.093417471240578
31
0
0
LINE
5
154
100
AcDbEntity
8
0
100
AcDbLine
10
-20
20
-27.093417471240578
30
0
11
-20
21
-40
31
0
0
LINE
5
155
100
AcDbEntity
8
0
100
AcDbLine
10
-20
20
-40
30
0
11
-35
21
-40
31
0
0
LINE
5
156
100
AcDbEntity
8
0
100
AcDbLine
10
-70
20
-25
30
0
11
-70
21
-40
31
0
0
LINE
5
157
100
AcDbEntity
8
0
100
AcDbLine
10
-70
20
-40
30
0
11
-85
21
-39.999999999999993
31
0
0
LINE
5
158
100
AcDbEntity
8
0
100
AcDbLine
10
-85
20
-50
30
0
11
-70
21
-50.000000000000007
31
0
0
LINE
5
159
100
AcDbEntity
8
0
100
AcDbLine
10
-70
20
-50.000000000000007
30
0
11
-70
21
-64.834051674877287
31
0
0
LINE
5
160
100
AcDbEntity
8
0
100
AcDbLine
10
-59.7757528822561
20
-64.834051674877287
30
0
11
-59.7757528822561
21
-50.000000000000007
31
0
0
LINE
5
161
100
AcDbEntity
8
0
100
AcDbLine
10
-59.7757528822561
20
-50.000000000000007
30
0
11
-45
21
-50.000000000000007
31
0
0
LINE
5
162
100
AcDbEntity
8
0
100
AcDbLine
10
-45
20
-40
30
0
11
-59.7757528822561
21
-39.999999999999993
31
0
0
LINE
5
163
100
AcDbEntity
8
0
100
AcDbLine
10
-59.7757528822561
20
-39.999999999999993
30
0
11
-59.7757528822561
21
-25
31
0
0
LWPOLYLINE
5
164
100
AcDbEntity
8
0
100
AcDbPolyline
90
20
70
1
43
0.0
10
35.000000521540642
20
-65.000000968575478
10
45.000000670552254
20
-95.000001415610313
10
54.999999952812985
20
-95.000000141561031
10
63.999999662240356
20
-68.000001013278961
10
86.000001281499863
20
-68.000001013278961
10
86.000001281499863
20
-76.250000000000014
10
65.000000000000014
20
-76.250000000000014
10
65.000000000000014
20
-80
10
85
20
-95
10
90
20
-95
10
70
20
-80
10
85
20
-79.999999999999986
42
0.41421356237309453
10
90
20
-75
10
90
20
-70
42
0.41421356237309453
10
85
20
-65
10
65
20
-65
10
60
20
-65.000000968575478
10
53.000000789761543
20
-92.00000137090683
10
47.000000700354576
20
-92.00000137090683
10
40.000000596046448
20
-65.000000968575478
0
LWPOLYLINE
5
165
100
AcDbEntity
8
0
100
AcDbPolyline
90
14
70
1
43
0.0
10
79.000001177191734
20
-97.000001445412636
10
73.000001087784767
20
-110.00000163912773
10
80.00000119209291
20
-110.00000163912773
10
80.000001192092896
20
-100.00000149011612
10
82.000001221895388
20
-100.00000149011638
10
82.000001221895388
20
-110.00000163912773
10
86.000001281499863
20
-110.00000163912773
10
86.000001281499863
20
-112.00000166893007
10
82.000001221895388
20
-112.00000166893007
10
82.000001221895388
20
-120.00000178813934
10
80.000001192092924
20
-120.00000178813934
10
80.00000119209291
20
-112.00000166893007
10
70.000001043081284
20
-112.00000166893005
10
77.000001147389412
20
-97.000001445412636
0
LWPOLYLINE
5
166
100
AcDbEntity
8
0
100
AcDbPolyline
90
11
70
1
43
0.0
10
92.93541457758468
20
-98.000001460313797
10
88.172882189080951
20
-109.5796577991434
42
0.097859683879331652
10
88.000001311302157
20
-110.45450878067159
10
88.000001311302171
20
-117.70417135927191
42
0.41421356237309054
10
90.300001311302168
20
-120.00417135927192
10
96.633071304955237
20
-120.00417135927192
42
0.41421356237309054
10
98.933071304955234
20
-117.70417135927191
10
98.933071304955234
20
-112.30000163912774
42
0.41421356237309054
10
96.633071304955237
20
-110.00000163912773
10
90.000001341104507
20
-110.00000163912773
10
95.000001415610313
20
-98.000001460313797
0
LWPOLYLINE
5
167
100
AcDbEntity
8
0
100
AcDbPolyline
90
8
70
1
43
0.0
10
90.000001341104493
20
-114.30000166893004
10
90.000001341104493
20
-115.70417132946959
42
0.41421356237308826
10
92.300001341104519
20
-118.0041713294696
10
94.700001445412624
20
-118.0041713294696
42
0.41421356237309054
10
97.000001445412636
20
-115.70417132946959
10
97.000001445412636
20
-114.30000166893004
42
0.41421356237309276
10
94.700001445412624
20
-112.00000166893005
10
92.300001341104519
20
-112.00000166893004
42
0.41421356237308826
0
ARC
5
168
100
AcDbEntity
8
0
100
AcDbCircle
10
-29.999999999999993
20
74.999999999999986
30
0
40
9.9999999999999911
210
0
220
0
230
1
100
AcDbArc
50
-90.000000000000057
51
0
0
LINE
5
169
100
AcDbEntity
8
0
100
AcDbLine
10
-20
20
75
30
0
11
-20
21
74.000001102685928
31
0
0
LINE
5
170
100
AcDbEntity
8
0
100
AcDbLine
10
-20
20
72.000001072883606
30
0
11
-20
21
69.000001028180122
31
0
0
ARC
5
171
100
AcDbEntity
8
0
100
AcDbCircle
10
-65.000000000000014
20
74.999999999999986
30
0
40
9.9999999999999822
210
0
220
0
230
1
100
AcDbArc
50
180
51
216.86989028204664
0
ARC
5
172
100
AcDbEntity
8
0
100
AcDbCircle
10
-65.000000000000014
20
74.999999999999986
30
0
40
9.999999999999984
210
0
220
0
230
1
100
AcDbArc
50
233.13009282035128
51
270.00000000000011
0
LINE
5
173
100
AcDbEntity
8
0
100
AcDbLine
10
-75
20
74.000001102685928
30
0
11
-75
21
75
31
0
0
ARC
5
174
100
AcDbEntity
8
0
100
AcDbCircle
10
-20.97999999999999
20
103.64032263101167
30
0
40
0.97999999999998533
210
-0
220
0
230
1
100
AcDbArc
50
0
51
108.43494882292312
0
ARC
5
175
100
AcDbEntity
8
0
100
AcDbCircle
10
-74.02000000000001
20
103.64032263101167
30
0
40
0.97999999999998377
210
0
220
-0
230
1
100
AcDbArc
50
71.565051177077464
51
180
0
ENDSEC
0
SECTION
2
OBJECTS
0
DICTIONARY
5
C
100
AcDbDictionary
3
ACAD_GROUP
350
D
3
ACAD_MLINESTYLE
350
17
0
DICTIONARY
5
D
100
AcDbDictionary
0
DICTIONARY
5
1A
330
C
100
AcDbDictionary
0
DICTIONARY
5
17
100
AcDbDictionary
0
ENDSEC
0
EOF
